<svg width="88" height="78" viewBox="0 0 88 78" fill="none" xmlns="http://www.w3.org/2000/svg">
<g clip-path="url(#clip0_106_135)">
<path d="M6.6 66.85L10.45 73.5C11.25 74.9 12.4 76 13.75 76.8L27.5 53H0C0 54.55 0.4 56.1 1.2 57.5L6.6 66.85Z" fill="#0066DA"/>
<path d="M43.65 25L29.9 1.19995C28.55 1.99995 27.4 3.09995 26.6 4.49995L1.2 48.5C0.414713 49.8698 0.00104556 51.421 0 53H27.5L43.65 25Z" fill="#00AC47"/>
<path d="M73.5499 76.8C74.8999 76 76.0499 74.9 76.8498 73.5L78.4498 70.75L86.0998 57.5C86.8998 56.1 87.2999 54.55 87.2999 53H59.7979L65.6499 64.5L73.5499 76.8Z" fill="#EA4335"/>
<path d="M43.6504 25L57.4004 1.2C56.0504 0.4 54.5004 0 52.9004 0H34.4004C32.8004 0 31.2504 0.45 29.9004 1.2L43.6504 25Z" fill="#00832D"/>
<path d="M59.8 53H27.5L13.75 76.8C15.1 77.6 16.65 78 18.25 78H69.05C70.65 78 72.2 77.55 73.55 76.8L59.8 53Z" fill="#2684FC"/>
<path d="M73.4004 26.5L60.7004 4.49995C59.9004 3.09995 58.7504 1.99995 57.4004 1.19995L43.6504 25L59.8004 53H87.2504C87.2504 51.45 86.8504 49.9 86.0504 48.5L73.4004 26.5Z" fill="#FFBA00"/>
</g>
<defs>
<clipPath id="clip0_106_135">
<rect width="87.3" height="78" fill="white"/>
</clipPath>
</defs>
</svg>
