<svg width="1225" height="495" viewBox="0 0 1225 495" fill="none" xmlns="http://www.w3.org/2000/svg">
<path d="M101.541 473.546C69.9062 473.546 44.8167 459.081 26.2722 430.151C8.81859 401.221 0.0917969 364.025 0.0917969 318.563C0.0917969 241.417 15.3637 177.357 45.9075 126.385C77.5421 74.0349 122.812 32.0173 181.718 0.331909L186.627 23.0628C149.538 49.2376 116.813 82.3007 88.4506 122.252C60.0885 162.204 45.3621 211.798 44.2712 271.035C60.6339 254.504 79.1784 246.238 99.9045 246.238C126.085 246.238 147.357 256.57 163.72 277.235C181.173 296.521 189.9 322.008 189.9 353.693C189.9 388.134 181.173 417.064 163.72 440.484C147.357 462.526 126.63 473.546 101.541 473.546ZM369.889 473.546C338.255 473.546 313.165 459.081 294.621 430.151C277.167 401.221 268.441 364.025 268.441 318.563C268.441 241.417 283.713 177.357 314.256 126.385C345.891 74.0349 391.162 32.0173 450.067 0.331909L454.976 23.0628C417.887 49.2376 385.162 82.3007 356.8 122.252C328.438 162.204 313.711 211.798 312.62 271.035C328.982 254.504 347.527 246.238 368.253 246.238C394.434 246.238 415.705 256.57 432.068 277.235C449.522 296.521 458.248 322.008 458.248 353.693C458.248 388.134 449.522 417.064 432.068 440.484C415.705 462.526 394.979 473.546 369.889 473.546Z" fill="white" fill-opacity="0.01"/>
<path d="M1122.75 20.9963C1154.38 20.9963 1178.93 35.4614 1196.38 64.3915C1214.92 93.3216 1224.2 130.518 1224.2 175.979C1224.2 253.126 1208.38 317.875 1176.75 370.225C1146.2 421.196 1101.48 462.526 1042.57 494.211L1037.66 471.48C1074.75 445.304 1107.48 412.242 1135.83 372.291C1164.2 332.339 1178.93 282.745 1180.02 223.507C1163.65 240.039 1145.1 248.304 1124.38 248.304C1098.21 248.304 1076.39 238.661 1058.93 219.374C1042.57 198.709 1034.39 172.535 1034.39 140.85C1034.39 106.409 1042.57 78.1678 1058.93 56.1257C1076.39 32.7061 1097.65 20.9963 1122.75 20.9963ZM854.397 20.9963C886.032 20.9963 910.576 35.4614 928.03 64.3915C946.574 93.3216 955.847 130.518 955.847 175.979C955.847 253.126 940.029 317.875 908.394 370.225C877.85 421.196 833.126 462.526 774.22 494.211L769.311 471.48C806.4 445.304 839.126 412.242 867.488 372.291C895.849 332.339 910.576 282.745 911.667 223.507C895.305 240.039 876.76 248.304 856.034 248.304C829.853 248.304 808.036 238.661 790.583 219.374C774.22 198.709 766.039 172.535 766.039 140.85C766.039 106.409 774.22 78.1678 790.583 56.1257C808.036 32.7061 829.308 20.9963 854.397 20.9963Z" fill="white" fill-opacity="0.01"/>
</svg>
