<svg width="100" height="70" viewBox="0 0 100 70" fill="none" xmlns="http://www.w3.org/2000/svg">
<g clip-path="url(#clip0_106_122)">
<mask id="mask0_106_122" style="mask-type:luminance" maskUnits="userSpaceOnUse" x="0" y="0" width="100" height="70">
<path d="M0.0224609 0.183228H99.6562V69.8167H0.0224609V0.183228Z" fill="white"/>
</mask>
<g mask="url(#mask0_106_122)">
<path fill-rule="evenodd" clip-rule="evenodd" d="M41.392 7.80625C44.6081 4.45651 49.0843 2.38217 54.0293 2.38217C60.6227 2.38217 66.337 6.04709 69.4139 11.5078C72.1452 10.2862 75.1035 9.65552 78.0953 9.65703C89.9634 9.65703 99.5971 19.3691 99.5971 31.3534C99.5971 43.3377 89.9634 53.0497 78.0953 53.0497C76.6447 53.0497 75.2308 52.9038 73.8462 52.6282C71.1539 57.4293 66.0073 60.6911 60.1465 60.6911C57.7604 60.6958 55.4048 60.1542 53.2601 59.1078C50.5312 65.5214 44.1758 70.0293 36.7766 70.0293C29.0476 70.0293 22.4909 65.1549 19.9634 58.3015C18.8385 58.5391 17.6918 58.6585 16.5421 58.6578C7.34801 58.6578 -0.0878906 51.108 -0.0878906 41.8358C-0.0878906 35.6054 3.26009 30.1813 8.22713 27.2494C7.17337 24.8206 6.63096 22.2008 6.63372 19.5531C6.63372 8.85149 15.315 0.202271 26.011 0.202271C32.2747 0.202271 37.8791 3.18918 41.3956 7.82531" fill="#00A1E0"/>
</g>
<path fill-rule="evenodd" clip-rule="evenodd" d="M14.4328 36.3926C14.3702 36.5561 14.4552 36.5901 14.4753 36.6191C14.6625 36.7547 14.8526 36.8529 15.0431 36.9632C16.0614 37.502 17.0211 37.6596 18.0248 37.6596C20.0687 37.6596 21.3398 36.5711 21.3398 34.8193V34.7848C21.3398 33.1649 19.9039 32.5749 18.5632 32.1534L18.3878 32.0966C17.3731 31.7675 16.4976 31.4809 16.4976 30.8139V30.7798C16.4976 30.208 17.0105 29.7866 17.8017 29.7866C18.6808 29.7866 19.7284 30.0794 20.3987 30.4499C20.3987 30.4499 20.5973 30.5782 20.6694 30.3865C20.7086 30.2828 21.0504 29.3677 21.087 29.2651C21.1259 29.1577 21.0577 29.0767 20.9878 29.0349C20.2185 28.5658 19.1563 28.2469 18.0574 28.2469L17.8533 28.2477C15.9815 28.2477 14.6738 29.3801 14.6738 31V31.0349C14.6738 32.7427 16.1171 33.2998 17.465 33.6846L17.6819 33.752C18.6636 34.054 19.5134 34.3164 19.5134 35.0054V35.0399C19.5134 35.6739 18.9603 36.1467 18.0738 36.1467C17.7291 36.1467 16.6306 36.1408 15.4401 35.388C15.2962 35.3041 15.2141 35.2437 15.1031 35.1759C15.0445 35.1403 14.898 35.0762 14.8343 35.2682L14.4313 36.3897M44.3581 36.3897C44.2954 36.5531 44.3804 36.5872 44.4013 36.6162C44.5878 36.7518 44.7786 36.85 44.9691 36.9603C45.9874 37.499 46.9471 37.6566 47.9508 37.6566C49.9947 37.6566 51.2658 36.5682 51.2658 34.8163V34.7819C51.2658 33.162 49.8335 32.5719 48.4892 32.1505L48.3138 32.0937C47.2991 31.7645 46.4237 31.4779 46.4237 30.8109V30.7768C46.4237 30.2051 46.9365 29.7837 47.7277 29.7837C48.6068 29.7837 49.6508 30.0765 50.3247 30.447C50.3247 30.447 50.5233 30.5753 50.5958 30.3836C50.6346 30.2799 50.9768 29.3648 51.0097 29.2621C51.0489 29.1548 50.9804 29.0738 50.9108 29.032C50.1416 28.5629 49.0793 28.244 47.9804 28.244L47.776 28.2448C45.9042 28.2448 44.5965 29.3772 44.5965 30.9971V31.0319C44.5965 32.7398 46.0398 33.2968 47.3878 33.6817L47.6042 33.7491C48.5896 34.0511 49.4357 34.3135 49.4357 35.0025V35.0369C49.4357 35.671 48.8826 36.1438 47.9962 36.1438C47.6508 36.1438 46.5493 36.1379 45.3625 35.3851C45.2185 35.3012 45.1343 35.2433 45.0251 35.1729C44.9881 35.1495 44.8156 35.082 44.7566 35.2653L44.3537 36.3867M64.7933 32.9564C64.7933 33.9459 64.6086 34.7265 64.2475 35.2799C63.887 35.826 63.3427 36.0935 62.5845 36.0935C61.8262 36.0935 61.2841 35.8282 60.9288 35.2836C60.5709 34.7339 60.3903 33.9496 60.3903 32.96C60.3903 31.9705 60.572 31.1935 60.9288 30.6475C61.2834 30.1051 61.8226 29.8449 62.5845 29.8449C63.3464 29.8449 63.8885 30.1076 64.2475 30.6475C64.6108 31.1935 64.7933 31.9705 64.7933 32.96M66.5002 31.1239C66.3321 30.5559 66.0716 30.0574 65.7237 29.6396C65.3753 29.2218 64.9361 28.8846 64.4123 28.6428C63.8922 28.399 63.2768 28.2763 62.5808 28.2763C61.8848 28.2763 61.2731 28.3998 60.7493 28.6428C60.2291 28.8861 59.7859 29.2218 59.4379 29.6396C59.0907 30.0574 58.8299 30.5559 58.6614 31.1239C58.4947 31.6883 58.4101 32.304 58.4101 32.96C58.4101 33.6161 58.4947 34.2318 58.6614 34.7962C58.8288 35.3642 59.09 35.8627 59.4379 36.2805C59.7863 36.6983 60.2291 37.0318 60.7493 37.27C61.2731 37.5075 61.8885 37.6284 62.5808 37.6284C63.2731 37.6284 63.8885 37.5075 64.4086 37.27C64.9288 37.0325 65.372 36.6983 65.72 36.2805C66.0676 35.8627 66.328 35.3642 66.4965 34.7962C66.6628 34.2318 66.7475 33.6161 66.7475 32.96C66.7475 32.3077 66.6628 31.6883 66.4965 31.1239M80.5259 35.815C80.4698 35.649 80.3079 35.7117 80.3079 35.7117C80.0599 35.8066 79.7951 35.8945 79.513 35.9385C79.2288 35.9832 78.9123 36.0056 78.579 36.0056C77.7548 36.0056 77.0954 35.7597 76.6266 35.2726C76.1541 34.7852 75.8903 34.0009 75.894 32.938C75.8965 31.9705 76.1302 31.2449 76.5497 30.6878C76.9636 30.138 77.6009 29.8522 78.4434 29.8522C79.1467 29.8522 79.6852 29.9339 80.2493 30.1106C80.2493 30.1106 80.383 30.1688 80.4471 29.9926C80.5969 29.5784 80.7075 29.2816 80.8683 28.8271C80.9138 28.697 80.8024 28.642 80.7617 28.6263C80.5405 28.5398 80.0182 28.3979 79.6226 28.3382C79.2526 28.2818 78.824 28.2524 78.3405 28.2524C77.6226 28.2524 76.9852 28.3752 76.4394 28.6186C75.8936 28.8616 75.4321 29.1976 75.0658 29.6154C74.6995 30.0332 74.4211 30.5317 74.2343 31.0997C74.0493 31.6641 73.9559 32.2835 73.9559 32.9395C73.9559 34.3542 74.3368 35.5013 75.0914 36.3406C75.846 37.1835 76.9815 37.6086 78.4614 37.6086C79.3368 37.6086 80.2343 37.4316 80.879 37.1762C80.879 37.1762 81.002 37.1168 80.9486 36.9731L80.5273 35.815M83.5127 32.0035C83.5944 31.4538 83.7449 30.9956 83.9815 30.6401C84.3357 30.0977 84.8753 29.8009 85.6335 29.8009C86.3918 29.8009 86.8936 30.0992 87.2526 30.6401C87.4907 30.9975 87.5947 31.4721 87.6335 32.0035L83.4944 32.0028L83.5127 32.0035ZM89.2636 30.7941C89.1182 30.248 88.7581 29.6946 88.5237 29.4417C88.15 29.0422 87.7874 28.76 87.4248 28.6061C86.9012 28.3834 86.338 28.2691 85.7691 28.27C85.0475 28.27 84.3918 28.3921 83.8607 28.6402C83.3295 28.8901 82.8826 29.2302 82.531 29.6554C82.1797 30.0805 81.9156 30.5826 81.7471 31.158C81.5786 31.7261 81.4936 32.3491 81.4936 33.0015C81.4936 33.6685 81.5819 34.2878 81.7555 34.8486C81.931 35.413 82.2134 35.9077 82.5944 36.3182C82.9753 36.7323 83.4625 37.0549 84.0486 37.2821C84.631 37.5075 85.3379 37.6244 86.1475 37.6218C87.8178 37.6163 88.6969 37.2443 89.0559 37.0428C89.12 37.0068 89.1804 36.9449 89.105 36.7664L88.7277 35.7073C88.6698 35.5493 88.5101 35.6065 88.5101 35.6065C88.0962 35.7611 87.5101 36.0389 86.1365 36.0353C85.239 36.0338 84.576 35.7688 84.1585 35.3536C83.7336 34.9285 83.5211 34.3091 83.4881 33.4295L89.2757 33.4339C89.2757 33.4339 89.428 33.4324 89.4438 33.2837C89.45 33.2221 89.642 32.0962 89.2713 30.7952L89.2636 30.7941ZM37.2489 32.0035C37.3306 31.4538 37.4815 30.9956 37.7178 30.6401C38.0724 30.0977 38.6116 29.8009 39.3698 29.8009C40.128 29.8009 40.6299 30.0992 40.9889 30.6401C41.2266 30.9975 41.3306 31.4721 41.3698 32.0035L37.2306 32.0028L37.2489 32.0035ZM42.9998 30.7941C42.8548 30.248 42.4943 29.6946 42.2599 29.4417C41.8863 29.0422 41.5237 28.76 41.161 28.6061C40.6375 28.3834 40.0742 28.2691 39.5053 28.27C38.7837 28.27 38.128 28.3921 37.5969 28.6402C37.0658 28.8901 36.6189 29.2302 36.2672 29.6554C35.9167 30.0805 35.6519 30.5826 35.4834 31.158C35.3152 31.7261 35.2306 32.3491 35.2306 33.0015C35.2306 33.6685 35.3182 34.2878 35.4929 34.8486C35.668 35.413 35.9508 35.9077 36.3281 36.3182C36.709 36.7323 37.1962 37.0549 37.7823 37.2821C38.3647 37.5075 39.068 37.6244 39.8812 37.6218C41.5515 37.6163 42.4306 37.2443 42.7896 37.0428C42.8533 37.0068 42.9141 36.9449 42.8383 36.7664L42.461 35.7073C42.4028 35.5493 42.2431 35.6065 42.2431 35.6065C41.8291 35.7611 41.2431 36.0389 39.8694 36.0353C38.9757 36.0338 38.309 35.7688 37.8914 35.3536C37.4665 34.9285 37.2541 34.3091 37.2211 33.4295L43.0086 33.4339C43.0086 33.4339 43.161 33.4324 43.1768 33.2837C43.183 33.2221 43.3749 32.0962 43.0039 30.7952L42.9998 30.7941ZM24.7581 35.7784C24.5313 35.5973 24.4998 35.553 24.4248 35.4353C24.3101 35.2583 24.2515 35.0065 24.2515 34.684C24.2515 34.1783 24.42 33.8118 24.768 33.5662C24.7643 33.5669 25.2661 33.1338 26.4456 33.1484C26.9706 33.1578 27.4944 33.2025 28.0134 33.2822V35.9099H28.0141C28.0141 35.9099 27.2815 36.0679 26.4537 36.1177C25.2779 36.1885 24.7577 35.7791 24.7614 35.7802L24.7581 35.7784ZM27.0585 31.7103C26.824 31.6931 26.52 31.6846 26.1574 31.6846C25.6628 31.6846 25.183 31.7462 24.7361 31.8672C24.2856 31.9888 23.879 32.1772 23.531 32.4279C23.182 32.677 22.895 33.003 22.6922 33.3808C22.4874 33.7619 22.383 34.209 22.383 34.7148C22.383 35.2279 22.472 35.6713 22.6478 36.0342C22.8201 36.3941 23.0795 36.7052 23.4024 36.9394C23.7237 37.1732 24.1204 37.3462 24.5782 37.4488C25.0324 37.5526 25.5453 37.605 26.1094 37.605C26.7028 37.605 27.2925 37.5551 27.8639 37.4587C28.3506 37.3747 28.8355 37.2804 29.3182 37.1758C29.5108 37.1315 29.7248 37.0732 29.7248 37.0732C29.8676 37.0369 29.8566 36.8841 29.8566 36.8841L29.8533 31.6066C29.8533 30.4485 29.5442 29.5872 28.9339 29.0558C28.3259 28.5244 27.4357 28.2568 26.2819 28.2568C25.8497 28.2568 25.15 28.3155 24.7324 28.3994C24.7324 28.3994 23.4724 28.6442 22.9522 29.0518C22.9522 29.0518 22.8379 29.1221 22.9002 29.2816L23.3105 30.381C23.3614 30.5236 23.5002 30.4749 23.5002 30.4749C23.5002 30.4749 23.5438 30.4576 23.5951 30.4272C24.705 29.8225 26.1116 29.8408 26.1116 29.8408C26.7343 29.8408 27.2178 29.9673 27.5401 30.2146C27.8555 30.4569 28.0163 30.823 28.0163 31.5927V31.8371C27.5218 31.7653 27.0639 31.7239 27.0639 31.7239L27.0585 31.7103ZM73.5786 28.7307C73.5869 28.7114 73.5913 28.6906 73.5914 28.6695C73.5915 28.6485 73.5874 28.6276 73.5793 28.6082C73.5712 28.5888 73.5593 28.5712 73.5443 28.5565C73.5292 28.5418 73.5114 28.5302 73.4918 28.5226C73.3933 28.4852 72.902 28.3815 72.5248 28.358C71.7995 28.3126 71.3966 28.435 71.0339 28.5977C70.6757 28.7593 70.2793 29.0191 70.0596 29.3197L70.0588 28.616C70.0588 28.5193 69.9903 28.4412 69.8929 28.4412H68.413C68.3171 28.4412 68.2475 28.5193 68.2475 28.616V37.2286C68.2476 37.2751 68.2661 37.3197 68.299 37.3526C68.3318 37.3855 68.3764 37.404 68.4229 37.4041H69.9394C69.9859 37.404 70.0304 37.3855 70.0632 37.3526C70.0961 37.3197 70.1145 37.2751 70.1145 37.2286V32.904C70.1145 32.3249 70.1782 31.7495 70.3053 31.3867C70.4306 31.0279 70.6009 30.7417 70.8108 30.5364C71.0111 30.3382 71.2561 30.1911 71.5251 30.1076C71.7776 30.0351 72.039 29.9984 72.3017 29.9984C72.6039 29.9984 72.9354 30.0761 72.9354 30.0761C73.0467 30.0886 73.1086 30.0204 73.1464 29.92C73.2456 29.6557 73.5273 28.8645 73.5823 28.7069" fill="#FFFFFE"/>
<path fill-rule="evenodd" clip-rule="evenodd" d="M59.4147 24.7558C59.2273 24.6991 59.0366 24.6538 58.8437 24.6202C58.5842 24.5768 58.3214 24.5565 58.0583 24.5593C57.0133 24.5593 56.1894 24.8547 55.6111 25.4382C55.0367 26.0173 54.6459 26.8994 54.4499 28.0601L54.3792 28.4519H53.0675C53.0675 28.4519 52.9074 28.4453 52.8737 28.6201L52.6583 29.8222C52.6433 29.9373 52.6927 30.0091 52.8466 30.0083H54.1235L52.8279 37.244C52.7264 37.8267 52.6103 38.3061 52.4818 38.6693C52.355 39.0277 52.2312 39.2964 52.0788 39.4913C51.9312 39.6801 51.7913 39.819 51.5499 39.9C51.3506 39.967 51.1213 39.9978 50.87 39.9978C50.7301 39.9978 50.544 39.9744 50.4067 39.9469C50.2693 39.9198 50.1979 39.889 50.0949 39.8457C50.0949 39.8457 49.9451 39.7886 49.8861 39.9388C49.8382 40.0616 49.4979 40.998 49.4576 41.1138C49.4165 41.2281 49.4741 41.3183 49.5466 41.3443C49.7165 41.4052 49.8429 41.444 50.0744 41.4986C50.396 41.5745 50.6671 41.5792 50.9209 41.5792C51.4528 41.5792 51.9374 41.5045 52.3393 41.3593C52.7437 41.2131 53.0957 40.9584 53.407 40.6135C53.7437 40.2415 53.9554 39.852 54.1579 39.3206C54.3583 38.7939 54.529 38.1401 54.6656 37.3781L55.9675 30.0083H57.8708C57.8708 30.0083 58.0312 30.0142 58.0645 29.8401L58.2799 28.638C58.2949 28.523 58.2459 28.4511 58.0913 28.4519H56.244C56.2532 28.4101 56.3371 27.7599 56.5492 27.1479C56.6396 26.8866 56.81 26.6758 56.9543 26.5311C57.089 26.3932 57.255 26.2899 57.4382 26.2298C57.6389 26.1677 57.8482 26.1375 58.0583 26.1404C58.2323 26.1404 58.403 26.1613 58.533 26.1884C58.7122 26.2265 58.7817 26.2467 58.8286 26.2606C59.0169 26.3181 59.0422 26.2624 59.0792 26.1712L59.5209 24.9574C59.5664 24.8269 59.4557 24.7719 59.4147 24.7558ZM33.6001 37.2594C33.6001 37.3562 33.5312 37.4349 33.4345 37.4349H31.9023C31.8052 37.4349 31.7363 37.3562 31.7363 37.2594V24.9203C31.7363 24.824 31.8052 24.7459 31.9023 24.7459H33.4345C33.5312 24.7459 33.6001 24.824 33.6001 24.9203V37.2594Z" fill="#FFFFFE"/>
</g>
<defs>
<clipPath id="clip0_106_122">
<rect width="100" height="70" fill="white"/>
</clipPath>
</defs>
</svg>
