<svg width="1344" height="272" viewBox="0 0 1344 272" fill="none" xmlns="http://www.w3.org/2000/svg">
<path d="M0.243445 267V8.98963H155.957V36.7056H31.4869V123.885H147.894V151.601H31.4869V239.284H157.972V267H0.243445ZM202.494 8.98963V267H172.763V8.98963H202.494ZM221.473 267V73.4922H251.205V267H221.473ZM236.591 41.2409C230.796 41.2409 225.799 39.2672 221.599 35.3198C217.484 31.3724 215.426 26.6271 215.426 21.0839C215.426 15.5407 217.484 10.7954 221.599 6.84794C225.799 2.90052 230.796 0.926811 236.591 0.926811C242.386 0.926811 247.342 2.90052 251.457 6.84794C255.656 10.7954 257.756 15.5407 257.756 21.0839C257.756 26.6271 255.656 31.3724 251.457 35.3198C247.342 39.2672 242.386 41.2409 236.591 41.2409ZM354.34 73.4922V98.6885H254.059V73.4922H354.34ZM283.286 27.131H313.018V211.568C313.018 219.967 314.236 226.266 316.671 230.465C319.191 234.581 322.383 237.352 326.246 238.78C330.194 240.124 334.351 240.796 338.718 240.796C341.994 240.796 344.681 240.628 346.781 240.292C348.881 239.872 350.561 239.536 351.82 239.284L357.867 265.992C355.852 266.748 353.038 267.504 349.427 268.26C345.815 269.1 341.238 269.52 335.695 269.52C327.296 269.52 319.065 267.714 311.002 264.102C303.023 260.491 296.388 254.99 291.097 247.599C285.89 240.208 283.286 230.885 283.286 219.631V27.131ZM442.641 271.031C423.995 271.031 407.912 266.916 394.39 258.685C380.952 250.37 370.579 238.78 363.272 223.914C356.049 208.964 352.438 191.579 352.438 171.758C352.438 151.937 356.049 134.467 363.272 119.35C370.579 104.148 380.742 92.3055 393.76 83.8227C406.862 75.256 422.148 70.9726 439.617 70.9726C449.695 70.9726 459.648 72.6523 469.475 76.0118C479.301 79.3714 488.246 84.8306 496.309 92.3895C504.372 99.8644 510.797 109.775 515.584 122.121C520.371 134.467 522.765 149.669 522.765 167.726V180.325H373.603V154.624H492.529C492.529 143.706 490.346 133.963 485.978 125.397C481.695 116.83 475.564 110.069 467.585 105.114C459.69 100.158 450.367 97.6807 439.617 97.6807C427.775 97.6807 417.528 100.62 408.877 106.499C400.311 112.295 393.718 119.853 389.098 129.176C384.479 138.499 382.169 148.493 382.169 159.16V176.293C382.169 190.907 384.689 203.295 389.728 213.458C394.851 223.536 401.948 231.221 411.019 236.512C420.09 241.72 430.63 244.323 442.641 244.323C450.451 244.323 457.506 243.231 463.805 241.048C470.189 238.78 475.69 235.421 480.309 230.969C484.928 226.434 488.498 220.807 491.017 214.088L519.741 222.151C516.718 231.893 511.636 240.46 504.498 247.851C497.359 255.158 488.54 260.869 478.041 264.984C467.543 269.016 455.743 271.031 442.641 271.031ZM741.141 8.98963V267H710.906L570.31 64.4215H567.791V267H536.547V8.98963H566.783L707.882 212.072H710.402V8.98963H741.141ZM842.764 271.031C825.295 271.031 809.967 266.874 796.781 258.559C783.679 250.244 773.433 238.612 766.042 223.662C758.735 208.712 755.081 191.243 755.081 171.254C755.081 151.097 758.735 133.501 766.042 118.468C773.433 103.434 783.679 91.7596 796.781 83.4448C809.967 75.13 825.295 70.9726 842.764 70.9726C860.234 70.9726 875.52 75.13 888.622 83.4448C901.808 91.7596 912.054 103.434 919.361 118.468C926.752 133.501 930.448 151.097 930.448 171.254C930.448 191.243 926.752 208.712 919.361 223.662C912.054 238.612 901.808 250.244 888.622 258.559C875.52 266.874 860.234 271.031 842.764 271.031ZM842.764 244.323C856.035 244.323 866.953 240.922 875.52 234.119C884.086 227.316 890.427 218.371 894.543 207.285C898.658 196.198 900.716 184.188 900.716 171.254C900.716 158.32 898.658 146.268 894.543 135.097C890.427 123.927 884.086 114.898 875.52 108.011C866.953 101.124 856.035 97.6807 842.764 97.6807C829.494 97.6807 818.576 101.124 810.009 108.011C801.442 114.898 795.101 123.927 790.986 135.097C786.871 146.268 784.813 158.32 784.813 171.254C784.813 184.188 786.871 196.198 790.986 207.285C795.101 218.371 801.442 227.316 810.009 234.119C818.576 240.922 829.494 244.323 842.764 244.323ZM1024.51 73.4922V98.6885H924.23V73.4922H1024.51ZM953.458 27.131H983.19V211.568C983.19 219.967 984.408 226.266 986.843 230.465C989.363 234.581 992.555 237.352 996.418 238.78C1000.37 240.124 1004.52 240.796 1008.89 240.796C1012.17 240.796 1014.85 240.628 1016.95 240.292C1019.05 239.872 1020.73 239.536 1021.99 239.284L1028.04 265.992C1026.02 266.748 1023.21 267.504 1019.6 268.26C1015.99 269.1 1011.41 269.52 1005.87 269.52C997.468 269.52 989.237 267.714 981.174 264.102C973.195 260.491 966.56 254.99 961.269 247.599C956.062 240.208 953.458 230.885 953.458 219.631V27.131ZM1112.81 271.031C1094.17 271.031 1078.08 266.916 1064.56 258.685C1051.12 250.37 1040.75 238.78 1033.44 223.914C1026.22 208.964 1022.61 191.579 1022.61 171.758C1022.61 151.937 1026.22 134.467 1033.44 119.35C1040.75 104.148 1050.91 92.3055 1063.93 83.8227C1077.03 75.256 1092.32 70.9726 1109.79 70.9726C1119.87 70.9726 1129.82 72.6523 1139.65 76.0118C1149.47 79.3714 1158.42 84.8306 1166.48 92.3895C1174.54 99.8644 1180.97 109.775 1185.76 122.121C1190.54 134.467 1192.94 149.669 1192.94 167.726V180.325H1043.77V154.624H1162.7C1162.7 143.706 1160.52 133.963 1156.15 125.397C1151.87 116.83 1145.74 110.069 1137.76 105.114C1129.86 100.158 1120.54 97.6807 1109.79 97.6807C1097.95 97.6807 1087.7 100.62 1079.05 106.499C1070.48 112.295 1063.89 119.853 1059.27 129.176C1054.65 138.499 1052.34 148.493 1052.34 159.16V176.293C1052.34 190.907 1054.86 203.295 1059.9 213.458C1065.02 223.536 1072.12 231.221 1081.19 236.512C1090.26 241.72 1100.8 244.323 1112.81 244.323C1120.62 244.323 1127.68 243.231 1133.98 241.048C1140.36 238.78 1145.86 235.421 1150.48 230.969C1155.1 226.434 1158.67 220.807 1161.19 214.088L1189.91 222.151C1186.89 231.893 1181.81 240.46 1174.67 247.851C1167.53 255.158 1158.71 260.869 1148.21 264.984C1137.71 269.016 1125.91 271.031 1112.81 271.031ZM1339.76 116.83L1313.05 124.389C1311.37 119.937 1308.89 115.612 1305.61 111.413C1302.42 107.129 1298.06 103.602 1292.51 100.83C1286.97 98.0586 1279.87 96.6728 1271.22 96.6728C1259.38 96.6728 1249.51 99.4024 1241.62 104.862C1233.81 110.237 1229.9 117.082 1229.9 125.397C1229.9 132.788 1232.59 138.625 1237.96 142.908C1243.34 147.191 1251.74 150.761 1263.16 153.617L1291.88 160.672C1309.18 164.871 1322.08 171.296 1330.56 179.947C1339.04 188.513 1343.28 199.558 1343.28 213.08C1343.28 224.166 1340.09 234.077 1333.71 242.812C1327.41 251.546 1318.59 258.433 1307.25 263.473C1295.91 268.512 1282.73 271.031 1267.69 271.031C1247.96 271.031 1231.62 266.748 1218.69 258.181C1205.75 249.615 1197.56 237.1 1194.12 220.639L1222.34 213.584C1225.03 223.998 1230.11 231.809 1237.58 237.016C1245.14 242.224 1255.01 244.827 1267.19 244.827C1281.05 244.827 1292.05 241.888 1300.2 236.009C1308.43 230.045 1312.54 222.906 1312.54 214.592C1312.54 207.873 1310.19 202.245 1305.49 197.71C1300.79 193.091 1293.56 189.647 1283.82 187.38L1251.57 179.821C1233.85 175.621 1220.83 169.112 1212.51 160.294C1204.28 151.391 1200.17 140.262 1200.17 126.908C1200.17 115.99 1203.23 106.331 1209.36 97.9327C1215.58 89.5339 1224.02 82.9408 1234.69 78.1535C1245.44 73.3662 1257.62 70.9726 1271.22 70.9726C1290.37 70.9726 1305.4 75.172 1316.32 83.5707C1327.33 91.9695 1335.14 103.056 1339.76 116.83Z" fill="url(#paint0_linear_107_243)" fill-opacity="0.2"/>
<defs>
<linearGradient id="paint0_linear_107_243" x1="650.009" y1="13" x2="650.009" y2="259.403" gradientUnits="userSpaceOnUse">
<stop stop-color="#111111"/>
<stop offset="1" stop-color="#C0C0C0"/>
</linearGradient>
</defs>
</svg>
